<svg xmlns="http://www.w3.org/2000/svg" width="24" height="24" viewBox="0 0 24 24"><path fill="white" d="M19.27 4.58c-1.3-.6-2.75-1.05-4.25-1.3-.15-.05-.3.05-.38.2-.18.33-.39.73-.53 1.07-1.61-.24-3.23-.24-4.83 0-.14-.34-.36-.74-.54-1.07-.1-.15-.24-.25-.39-.2-1.5.25-2.95.7-4.25 1.3-.06.02-.12.08-.16.14-2.64 3.95-3.34 7.78-2.98 11.54.01.08.05.15.12.2 1.74 1.28 3.43 2.06 5.09 2.58.15.05.3-.01.39-.14.39-.53.73-1.1 1.02-1.7.05-.1 0-.21-.1-.26-1.57-.59-3.03-1.32-4.4-2.2-.12-.08-.13-.24-.03-.35.29-.22.58-.45.86-.68.05-.05.13-.06.19-.02 2.99 1.37 6.24 1.37 9.18 0 .07-.03.14-.02.19.02.28.24.58.46.87.68.1.11.09.27-.03.35-1.37.88-2.83 1.61-4.4 2.2-.1.05-.15.17-.1.26.29.6.63 1.17 1.02 1.7.09.13.24.19.39.14 1.67-.52 3.35-1.3 5.09-2.58.07-.05.11-.12.12-.2.43-4.32-.73-8.13-2.99-11.54-.04-.06-.1-.12-.16-.14zM8.44 13.02c-1.03 0-1.89-.95-1.89-2.1s.84-2.1 1.89-2.1c1.06 0 1.9.96 1.89 2.1 0 1.15-.84 2.1-1.89 2.1zm7.12 0c-1.03 0-1.89-.95-1.89-2.1s.84-2.1 1.89-2.1c1.06 0 1.9.96 1.89 2.1 0 1.15-.84 2.1-1.89 2.1z"/></svg>
